<?xml version="1.0" encoding="UTF-8"?>
<!DOCTYPE svg PUBLIC "-//W3C//DTD SVG 1.1//EN" "http://www.w3.org/Graphics/SVG/1.1/DTD/svg11.dtd">
<!-- Creator: CorelDRAW 2020 (64-Bit) -->
<svg xmlns="http://www.w3.org/2000/svg" xml:space="preserve" width="27.94cm" height="21.59cm" version="1.1" style="shape-rendering:geometricPrecision; text-rendering:geometricPrecision; image-rendering:optimizeQuality; fill-rule:evenodd; clip-rule:evenodd"
viewBox="0 0 27940 21590"
 xmlns:xlink="http://www.w3.org/1999/xlink"
 xmlns:xodm="http://www.corel.com/coreldraw/odm/2003">
 <defs>
  <style type="text/css">
   <![CDATA[
    .str0 {stroke:#02015E;stroke-width:70.56;stroke-miterlimit:22.9256}
    .str1 {stroke:#2EADD2;stroke-width:20;stroke-miterlimit:22.9256}
    .str2 {stroke:#E1D7CD;stroke-width:7.62;stroke-miterlimit:22.9256}
    .fil0 {fill:#02015E}
    .fil1 {fill:#31B0D4}
    .fil4 {fill:white}
    .fil5 {fill:white;fill-rule:nonzero}
    .fil2 {fill:url(#id0)}
    .fil3 {fill:url(#id1)}
   ]]>
  </style>
  <linearGradient id="id0" gradientUnits="userSpaceOnUse" x1="10428.96" y1="9723.57" x2="14285.35" y2="11299.58">
   <stop offset="0" style="stop-opacity:1; stop-color:#0078B5"/>
   <stop offset="0.45098" style="stop-opacity:1; stop-color:#24A1CB"/>
   <stop offset="1" style="stop-opacity:1; stop-color:#48CAE2"/>
  </linearGradient>
  <linearGradient id="id1" gradientUnits="userSpaceOnUse" x1="17672.57" y1="8929.88" x2="14170.86" y2="10357.46">
   <stop offset="0" style="stop-opacity:1; stop-color:#0078B5"/>
   <stop offset="1" style="stop-opacity:1; stop-color:#48CAE2"/>
  </linearGradient>
 </defs>
 <g id="Capa_x0020_1">
  <metadata id="CorelCorpID_0Corel-Layer"/>
  <g id="_2178647235344">
   <polygon class="fil0 str0" points="11300.3,15300.65 9165.71,15318.55 13446.81,4351.04 15376.28,4351.04 19898.54,15529.47 17609.6,15529.47 17333.21,14607.72 12104.26,13209.45 "/>
   <polygon class="fil1 str1" points="14220.53,7062.87 17092.48,14697.24 11894.37,13360.44 "/>
   <polygon class="fil2" points="15166.39,4502.03 13236.91,4502.03 8861.37,15662.25 10995.96,15644.35 11894.37,13360.44 "/>
   <polygon class="fil3" points="17465.24,15688.17 19711.82,15688.17 15189.53,4509.74 13260.05,4509.74 "/>
   <path class="fil4" d="M12913.46 9432.53c168.61,101.79 285.41,28.59 282.77,451.16 6.6,72.56 -470.67,1022.7 -470.67,1182.93 0,253.99 178.27,431.51 374.65,431.51l2085.04 0c80.79,0 230.18,16.9 287.44,-28.31 77.76,-61.43 64.96,-170.03 36.76,-285.51l-143.29 -608.9c-38.08,-0.43 -79.05,14.98 -117.05,21.15 -140.55,22.96 -226.94,12.12 -362.46,-7.74 -121.87,-17.86 -296.28,-97.48 -387.91,-162.73 -116.95,-83.25 -210.9,-172.45 -289.48,-289.86 -67.7,-101.19 -163.04,-283.41 -146.96,-471.27 104.64,-7.81 225.12,-1.07 331.47,-1.07 112.24,0 1600.14,5.84 1630.34,-1.89 98.62,-25.28 94.34,-219.34 -2.78,-230.5 -92.84,-10.66 -227.65,-0.54 -325.05,-0.54 -544.22,0 -1088.44,0 -1632.66,0 -110.1,0 -210.86,-5.45 -321.1,-5.45 -56.09,0 -101.26,5.45 -158.3,5.45 -121.62,0 -581.63,-8.52 -670.76,1.57z"/>
   <path class="fil4" d="M12984.02 9189.48c61.15,184.76 172.78,167.11 299.85,167.11l2457.65 0c72.45,0 258.45,13.79 309.83,-21.5 75.37,-51.77 56.73,-211.22 -65.42,-213.85 -70.38,-1.54 -142.19,0.17 -212.75,0.17 -64,0 -1648.13,7.35 -1715.87,-2.24 0.1,-157.13 7.3,-1539.14 -3.64,-1562.14 -7.85,-8.77 3.56,-1.32 -9.27,-5.85 -10.34,-3.63 4.31,0.04 -7.74,-1.78 -2.89,-0.43 -14.47,-0.18 -18.07,-0.1 -80.55,1.06 -191.11,-0.4 -439.44,-1.18l-571.78 1555.57c-13.97,39.08 -17.43,48.21 -23.35,85.79z"/>
   <path class="fil4" d="M14154.75 9756.37c0.07,209.68 229.75,438.33 352.97,541.01 395.72,329.69 879.22,307.34 1271.7,-16.65 141.58,-116.87 323.99,-264.69 334.25,-566.32 -43.39,23.35 -25.17,42.25 -100.36,42.07l-1858.56 -0.11z"/>
   <path class="fil4" d="M14622.88 8796.22c-9.98,24.88 -6.84,50.91 -15.44,78.18 -34.47,109.03 -79.79,123.62 -97.54,153.49l1511.11 -0.25c10.52,-110.52 -81.9,-233.67 -190.57,-233.71l-1207.56 2.29z"/>
   <path class="fil4" d="M14852.96 6984.9l-596.28 1533.61c18.26,1.17 28.85,-31.88 94.7,-46.92 56.72,-12.98 57.47,0.89 117.76,11.87l635.46 -1633.76c-66.78,-47 -205.94,17.75 -251.64,135.2z"/>
   <polygon class="fil4" points="13587.17,7476.81 14073.28,7477.27 14074.28,7243.96 13669.96,7243.39 "/>
   <path class="fil4" d="M13680.3 7147.58c156.31,-0.71 191.75,-1.67 343.03,-1.28l47.42 -0.68c9.77,-81.5 -66.89,-227.58 -183.09,-227.58l-125.96 0 -81.4 229.54z"/>
   <path class="fil4" d="M14175.03 8771.86c0,283.2 283.1,343.03 365.6,111.92 73.8,-206.9 -91.31,-419.39 -246.9,-334.04 -60.79,33.37 -118.7,111.95 -118.7,222.12z"/>
   <path class="fil4" d="M14126.08 8851.23l-1.64 165.22 108.82 1.43c-50.56,-29.88 -95.38,-102.12 -107.18,-166.65z"/>
   <path class="fil5 str2" d="M14397.73 12611.57m149.46 -176.38l222.94 0 0 173.45 -222.94 0 0 414.44 -149.46 0 0 -890.63c0,-77.9 16.47,-151.39 50.66,-217.52 32.91,-66.14 78.51,-117.59 135.52,-157.27 57.01,-38.22 119.09,-57.33 186.22,-57.33l0 173.45c-29.13,0 -58.26,5.85 -84.85,19.08 -26.64,13.22 -50.7,30.87 -72.24,55.87 -44.32,54.37 -65.85,114.62 -65.85,183.72l0 302.74z"/>
   <path class="fil5 str2" d="M12928.76 13008.36m747.37 -867.14l0 867.14 -381.28 0c-65.89,-1.46 -126.68,-22.04 -182.41,-61.72 -57.01,-39.68 -101.36,-91.13 -134.3,-157.27 -32.91,-66.14 -49.38,-138.16 -49.38,-214.6 0,-77.87 16.47,-151.35 50.66,-217.49 32.94,-66.13 78.54,-119.04 135.56,-158.73 56.97,-38.22 120.33,-57.33 187.46,-57.33 41.79,0 81.08,7.35 120.33,22.04 38.01,14.72 72.24,35.29 103.9,63.21l0 -85.25 149.46 0zm-149.46 433.55c0,-33.8 -5.1,-67.6 -16.47,-99.94 -11.41,-30.84 -27.88,-58.75 -49.42,-83.75 -21.53,-24.99 -45.6,-44.1 -72.2,-57.33 -27.88,-13.23 -57.01,-19.11 -86.14,-19.11 -59.5,0 -111.49,24.99 -158.34,76.44 -21.53,25 -36.72,52.91 -48.13,83.75 -11.41,32.34 -16.47,66.14 -16.47,99.94 0,69.1 21.53,130.82 64.6,183.73 45.61,49.98 98.84,74.98 158.34,74.98l224.23 0 0 -258.71z"/>
   <path class="fil5 str2" d="M13971.06 13008.36m0 -1286l151.99 0 0 1286 -151.99 0 0 -1286z"/>
   <path class="fil5 str2" d="M15059.96 13008.36m747.38 -867.14l0 867.14 -381.25 0c-65.89,-1.46 -126.71,-22.04 -182.4,-61.72 -57.01,-39.68 -101.37,-91.13 -134.31,-157.27 -32.95,-66.14 -49.42,-138.16 -49.42,-214.6 0,-77.87 16.47,-151.35 50.67,-217.49 32.94,-66.13 78.54,-119.04 135.55,-158.73 57.01,-38.22 120.33,-57.33 187.51,-57.33 41.78,0 81.04,7.35 120.33,22.04 38,14.72 72.2,35.29 103.86,63.21l0 -85.25 149.46 0zm-149.46 433.55c0,-33.8 -5.07,-67.6 -16.48,-99.94 -11.4,-30.84 -27.88,-58.75 -49.38,-83.75 -21.53,-24.99 -45.6,-44.1 -72.19,-57.33 -27.89,-13.23 -57.02,-19.11 -86.14,-19.11 -59.55,0 -111.49,24.99 -158.38,76.44 -21.53,25 -36.72,52.91 -48.1,83.75 -11.41,32.34 -16.47,66.14 -16.47,99.94 0,69.1 21.54,130.82 64.57,183.73 45.6,49.98 98.83,74.98 158.38,74.98l224.19 0 0 -258.71z"/>
  </g>
 </g>
</svg>
